<?xml version="1.0" encoding="UTF-8"?>
<svg version="1.1" xmlns="http://www.w3.org/2000/svg" width="209" height="207">
<path d="M0 0 C3.0121371 3.63228298 3.22583084 6.93148334 3.125 11.5625 C2.95871094 12.58577393 2.79242188 13.60904785 2.62109375 14.66333008 C2.07128056 18.98472105 2.05252003 23.11521155 2.1328125 27.4609375 C2.15032985 29.17447323 2.16723803 30.88801528 2.18359375 32.6015625 C2.21448194 35.26971341 2.25000069 37.93753983 2.29638672 40.60546875 C2.33907411 43.20316427 2.36225863 45.80048462 2.3828125 48.3984375 C2.41074387 49.57543716 2.41074387 49.57543716 2.4392395 50.7762146 C2.46761954 57.00004758 1.24889407 60.19081779 -0.875 66.5625 C-7.145 66.2325 -13.415 65.9025 -19.875 65.5625 C-20.875 61.5625 -20.875 61.5625 -19.953125 58.8046875 C-18.69835656 55.03128966 -18.57418217 51.61453859 -18.625 47.6875 C-18.62886719 46.95732666 -18.63273437 46.22715332 -18.63671875 45.47485352 C-18.75592304 37.7588593 -19.726168 30.18376943 -20.875 22.5625 C-21.53371094 22.72492187 -22.19242187 22.88734375 -22.87109375 23.0546875 C-26.57284603 23.68047137 -30.1962537 23.71046524 -33.9375 23.6875 C-35.06478516 23.68568726 -35.06478516 23.68568726 -36.21484375 23.68383789 C-40.63182159 23.65321678 -44.97608406 23.43592861 -49.375 23 C-61.34905281 21.92769676 -71.53504258 25.07614523 -81.1875 32.5625 C-88.22839143 39.28946633 -94.07441794 49.79887962 -94.875 59.5625 C-94.95492187 60.39910156 -95.03484375 61.23570313 -95.1171875 62.09765625 C-95.70423359 74.09756893 -91.3431405 85.27286182 -83.875 94.5625 C-80.68997312 97.75682623 -77.37096309 100.71367696 -73.875 103.5625 C-71.79136885 100.9662671 -69.72088684 98.36333415 -67.68359375 95.73046875 C-57.3110756 82.69219635 -43.90934464 72.99150629 -26.97265625 70.8046875 C-9.60327804 69.44667811 3.09384909 72.19842665 18.125 80.5625 C19.00285156 81.03816406 19.88070312 81.51382813 20.78515625 82.00390625 C33.66263735 90.58172755 42.83664032 106.63365583 46.125 121.5625 C47.45460154 137.49085781 46.38010931 151.0396516 38.078125 164.91796875 C35.4774829 172.13368473 37.50563655 180.60469176 38.67773438 187.98828125 C39.40873886 193.4684568 38.83277549 196.70239015 36.125 201.5625 C31.74725081 203.75137459 26.8456605 203.28603103 22.125 202.5625 C17.1145895 200.71090441 12.49469915 198.05230424 7.82763672 195.48095703 C3.7946694 193.30544469 1.35003361 192.1336233 -3.125 193.4375 C-19.42545616 197.15429552 -37.2813614 194.24439075 -51.71484375 185.92578125 C-56.92780105 182.55527169 -56.92780105 182.55527169 -58.875 180.5625 C-59.1484375 177.83984375 -59.1484375 177.83984375 -58.875 175.5625 C-58.11574219 175.15257812 -57.35648438 174.74265625 -56.57421875 174.3203125 C-55.58035156 173.78148437 -54.58648437 173.24265625 -53.5625 172.6875 C-52.57636719 172.15382812 -51.59023437 171.62015625 -50.57421875 171.0703125 C-47.77913542 169.55527874 -47.77913542 169.55527874 -44.875 167.5625 C-38.72654716 167.85528347 -33.29121746 170.85439127 -27.875 173.5625 C-26.30437486 173.65822577 -24.7297882 173.6932405 -23.15625 173.6953125 C-21.75826172 173.69724609 -21.75826172 173.69724609 -20.33203125 173.69921875 C-19.35621094 173.69535156 -18.38039063 173.69148437 -17.375 173.6875 C-16.39917969 173.69136719 -15.42335938 173.69523438 -14.41796875 173.69921875 C-13.48597656 173.69792969 -12.55398437 173.69664062 -11.59375 173.6953125 C-10.73716797 173.69418457 -9.88058594 173.69305664 -8.99804688 173.69189453 C-6.82008466 173.69836446 -6.82008466 173.69836446 -4.875 172.5625 C2.42563722 172.03154457 8.65543896 171.95158221 15.125 175.5625 C15.11597656 174.77488281 15.10695312 173.98726562 15.09765625 173.17578125 C15.32103369 164.96908838 17.27029879 159.7909499 21.40234375 152.765625 C26.6379666 143.03045326 27.20995211 133.25992842 24.5625 122.75 C20.74726044 110.32056102 14.13672017 101.7946079 2.87109375 95.25390625 C-8.63211178 89.63606169 -19.99905439 89.89971632 -32.1171875 93.53515625 C-43.24001174 97.70975313 -50.86114598 104.79319297 -55.875 115.5625 C-58.22526688 121.4243421 -58.93771609 126.88771936 -59.0234375 133.14404297 C-59.18615294 142.69747316 -59.18615294 142.69747316 -61.5703125 145.69140625 C-63.65692329 146.98110111 -65.55010687 147.79903788 -67.875 148.5625 C-68.89400391 149.10197266 -68.89400391 149.10197266 -69.93359375 149.65234375 C-72.61556473 150.90968628 -74.95525328 150.69521576 -77.875 150.5625 C-79.22617122 146.31596189 -80.05538641 142.29822391 -80.625 137.875 C-82.73031498 125.00204355 -90.01070145 116.16997105 -99.171875 107.3515625 C-109.89782372 96.51465569 -116.08105143 80.59726611 -116.25 65.375 C-115.99126479 49.20404921 -109.25731598 33.12914499 -97.875 21.5625 C-97.17632812 21.22476562 -96.47765625 20.88703125 -95.7578125 20.5390625 C-93.71853252 19.72497441 -93.71853252 19.72497441 -93.0078125 17.69140625 C-89.90547491 11.86115112 -79.21973219 7.06161349 -72.98461914 5.14477539 C-61.8921556 2.08314762 -51.09656888 2.43085564 -39.70776367 2.75439453 C-30.12872143 3.0079721 -22.11208915 2.63917871 -12.98168945 -0.56689453 C-8.28700987 -1.88251162 -4.40568057 -2.20284028 0 0 Z " fill="#10B981" transform="translate(160.875,4.4375)"/>
<path d="M0 0 C0.48284476 3.05712015 0.90302073 6.11976184 1.3125 9.1875 C1.44978516 10.05181641 1.58707031 10.91613281 1.72851562 11.80664062 C2.54733285 18.28274049 2.54733285 18.28274049 -0.27734375 21.984375 C-2.13277737 23.35798152 -3.9992103 24.71682478 -5.875 26.0625 C-13.6404444 32.4835393 -17.76470748 43.24769066 -19 53 C-19.2870512 61.76130174 -16.91483994 71.17032012 -13 79 C-12.92883618 81.37402501 -12.91590915 83.75000677 -12.9375 86.125 C-12.94652344 87.40632813 -12.95554687 88.68765625 -12.96484375 90.0078125 C-12.97644531 90.99523437 -12.98804687 91.98265625 -13 93 C-11.7625 92.505 -11.7625 92.505 -10.5 92 C-2.60237113 89.74353461 3.55071271 91.45626796 11.125 93.9375 C27.36103771 99.13640955 41.24922799 98.78427195 56.82421875 91.24609375 C69.31412085 84.09299003 81.13925927 73.33732612 85.1875 59.08984375 C86.06207676 55.74105362 86.8256645 52.37254462 87.5637207 48.99145508 C89.67695246 39.34532668 89.67695246 39.34532668 91.8125 37.0625 C96.73014916 34.67392755 101.63376658 34.73608688 107 35 C109.37946437 37.37946437 109.29598679 37.87740108 109.3125 41.125 C109.08587619 51.51947875 107.25185431 61.9733754 102 71 C101.566875 72.07378906 101.13375 73.14757812 100.6875 74.25390625 C98.96479045 78.34155407 96.59485824 81.79562202 94 85.375 C93.56171875 86.00277344 93.1234375 86.63054687 92.671875 87.27734375 C89.37508869 91.87497044 89.37508869 91.87497044 86 93 C85.32878662 94.33105027 84.66282146 95.66475098 84 97 C68.98726308 111.76459251 49.43443852 118.19325172 28.68432617 118.32568359 C19.6994804 118.18941089 9.62233795 116.60277672 1.41796875 112.8046875 C-4.91482019 110.69716808 -12.05553666 114.2177718 -18.0390625 116.44726562 C-22.96927588 118.12715493 -26.02883765 118.07740976 -31 116 C-32.95220723 114.4331538 -33.86418415 113.474137 -34.55786133 111.05249023 C-35.01959345 106.29403981 -34.86961323 102.07869068 -34.07177734 97.37011719 C-32.75870971 89.48503761 -32.8864346 83.68615514 -35.875 76.25 C-40.76097078 63.90547903 -41.46589201 49.25462236 -36.8125 36.6875 C-35.91002164 34.77474725 -34.9749788 32.8768342 -34 31 C-33.6390625 30.13761719 -33.278125 29.27523437 -32.90625 28.38671875 C-29.75343239 21.14649832 -24.74672377 15.35004727 -19 10 C-18.34 10 -17.68 10 -17 10 C-17 9.34 -17 8.68 -17 8 C-14.94241228 6.51925046 -12.91211348 5.18523151 -10.75 3.875 C-10.16347656 3.50246094 -9.57695312 3.12992187 -8.97265625 2.74609375 C-5.61330674 0.68518944 -4.04528996 0 0 0 Z " fill="#10B981" transform="translate(40,64)"/>
<path d="M0 0 C-1.134375 0.474375 -2.26875 0.94875 -3.4375 1.4375 C-5.96719495 2.84005264 -6.83706442 3.46212744 -7.6875 6.26953125 C-7.91534119 8.53014308 -8.03396897 10.72893152 -8 13 C-7.34 13.33 -6.68 13.66 -6 14 C-6.33 14.99 -6.66 15.98 -7 17 C-6.0925 16.79375 -5.185 16.5875 -4.25 16.375 C-0.78453137 15.97513823 0.09470856 16.34524705 3 18 C2.154375 18.35191406 1.30875 18.70382813 0.4375 19.06640625 C-13.09217838 24.95489127 -19.77017194 31.85677173 -26 45 C-26.73925511 47.76922724 -26.73925511 47.76922724 -27 50 C-27.33 50 -27.66 50 -28 50 C-28.21278058 45.53160785 -27.59138085 42.17737474 -26 38 C-26.66 38 -27.32 38 -28 38 C-28.33 36.68 -28.66 35.36 -29 34 C-28.236875 34.103125 -27.47375 34.20625 -26.6875 34.3125 C-25.3571875 34.1578125 -25.3571875 34.1578125 -24 34 C-22.3553326 31.53673288 -22.3553326 31.53673288 -21 29 C-20.01 29 -19.02 29 -18 29 C-18 28.01 -18 27.02 -18 26 C-19.98 26 -21.96 26 -24 26 C-24 25.01 -24 24.02 -24 23 C-24.598125 22.855625 -25.19625 22.71125 -25.8125 22.5625 C-27.56150404 22.1127561 -29.28677023 21.57107659 -31 21 C-31.33 21.99 -31.66 22.98 -32 24 C-32.804375 24.474375 -33.60875 24.94875 -34.4375 25.4375 C-37.15666889 27.09552981 -37.89407115 28.08436939 -39 31 C-39.66 31 -40.32 31 -41 31 C-39.61270946 27.01690294 -37.75889536 24.09741478 -35.125 20.8125 C-34.44695313 19.95269531 -33.76890625 19.09289062 -33.0703125 18.20703125 C-31 16 -31 16 -28.8671875 14.94921875 C-26.84040278 14.16097685 -26.84040278 14.16097685 -26.1328125 12.12890625 C-23.10748128 6.44336999 -13.27562725 2.32130999 -7.4375 -0.0625 C-4.07465562 -0.97963938 -3.1412187 -0.98291964 0 0 Z " fill="#10B981" transform="translate(94,10)"/>
<path d="M0 0 C0.45406924 5.05299516 0.89939314 10.10665672 1.33666992 15.16113281 C1.48661699 16.88009356 1.63894158 18.59884866 1.79370117 20.31738281 C2.0158798 22.78920938 2.2294662 25.26165213 2.44140625 27.734375 C2.51218887 28.50118591 2.5829715 29.26799683 2.65589905 30.05804443 C2.95418701 33.6315058 2.99376401 36.56143562 2 40 C2.66 40 3.32 40 4 40 C4 40.66 4 41.32 4 42 C5.98 41.505 5.98 41.505 8 41 C7.67 42.32 7.34 43.64 7 45 C9.97 45 12.94 45 16 45 C16 45.66 16 46.32 16 47 C9.73 46.67 3.46 46.34 -3 46 C-4.14356432 41.42574272 -3.44245626 40.32736878 -2 36 C-1.80968825 33.3692199 -1.71564455 30.87543084 -1.75 28.25 C-1.75386719 27.52498291 -1.75773438 26.79996582 -1.76171875 26.05297852 C-1.89120695 17.64254037 -2.90864089 9.33135751 -4 1 C-2 0 -2 0 0 0 Z " fill="#10B981" transform="translate(144,24)"/>
<path d="M0 0 C0.33 0 0.66 0 1 0 C1.495 9.405 1.495 9.405 2 19 C-1.13349732 20.04449911 -1.98968256 19.93423645 -5 19 C-5 18.01 -5 17.02 -5 16 C-10.04100465 13.93189553 -14.62276143 13.53755748 -20 14 C-20.66 14.33 -21.32 14.66 -22 15 C-23.77680673 15.14128517 -25.55828673 15.22594863 -27.33984375 15.28125 C-28.9340918 15.33732422 -28.9340918 15.33732422 -30.56054688 15.39453125 C-32.23213867 15.44673828 -32.23213867 15.44673828 -33.9375 15.5 C-36.13424589 15.56884752 -38.33087421 15.64158753 -40.52734375 15.71875 C-41.99288696 15.76418945 -41.99288696 15.76418945 -43.48803711 15.81054688 C-46.12724944 15.90686937 -46.12724944 15.90686937 -49 17 C-51.69921875 15.34765625 -51.69921875 15.34765625 -54.6875 13.0625 C-55.68136719 12.31097656 -56.67523438 11.55945313 -57.69921875 10.78515625 C-58.45847656 10.19605469 -59.21773437 9.60695312 -60 9 C-60.61359375 9.50144531 -61.2271875 10.00289062 -61.859375 10.51953125 C-64 12 -64 12 -66.25 11.6875 C-66.8275 11.460625 -67.405 11.23375 -68 11 C-62.90909091 7 -62.90909091 7 -59.1875 7 C-54.24948332 8.5491817 -49.62326539 10.68836731 -45 13 C-43.42937486 13.09572577 -41.8547882 13.1307405 -40.28125 13.1328125 C-38.88326172 13.13474609 -38.88326172 13.13474609 -37.45703125 13.13671875 C-36.48121094 13.13285156 -35.50539062 13.12898437 -34.5 13.125 C-33.03626953 13.13080078 -33.03626953 13.13080078 -31.54296875 13.13671875 C-30.61097656 13.13542969 -29.67898437 13.13414062 -28.71875 13.1328125 C-27.86216797 13.13168457 -27.00558594 13.13055664 -26.12304688 13.12939453 C-23.94508466 13.13586446 -23.94508466 13.13586446 -22 12 C-14.69936278 11.46904457 -8.46956104 11.38908221 -2 15 C-1.93941406 14.08476562 -1.87882812 13.16953125 -1.81640625 12.2265625 C-1.69072266 10.44378906 -1.69072266 10.44378906 -1.5625 8.625 C-1.44068359 6.84996094 -1.44068359 6.84996094 -1.31640625 5.0390625 C-1 2 -1 2 0 0 Z " fill="#10B981" transform="translate(178,165)"/>
<path d="M0 0 C0.495 0.99 0.495 0.99 1 2 C3.32156597 2.40729228 5.6568787 2.74438677 8 3 C7.67 3.66 7.34 4.32 7 5 C7.66 5.33 8.32 5.66 9 6 C9.33 5.34 9.66 4.68 10 4 C12.475 5.98 12.475 5.98 15 8 C14.67 8.66 14.34 9.32 14 10 C16.475 10.99 16.475 10.99 19 12 C18.67 13.32 18.34 14.64 18 16 C17.07380859 15.20335937 17.07380859 15.20335937 16.12890625 14.390625 C6.70637901 6.5313481 -2.77795447 1.5813041 -15.35546875 2.15234375 C-23.78742554 3.13498022 -31.23937329 5.6224515 -39 9 C-39 8.34 -39 7.68 -39 7 C-36.69 5.68 -34.38 4.36 -32 3 C-32 2.34 -32 1.68 -32 1 C-28.64637391 0.6610769 -25.29202668 0.32988036 -21.9375 0 C-20.99455078 -0.09539062 -20.05160156 -0.19078125 -19.08007812 -0.2890625 C-4.46005593 -1.71540613 -4.46005593 -1.71540613 0 0 Z " fill="#10B981" transform="translate(158,93)"/>
<path d="M0 0 C-2.28397414 2.28397414 -4.1449317 2.9713997 -7.125 4.1875 C-18.36979572 9.28944121 -23.83722859 17.10796854 -29 28 C-29.73925511 30.76922724 -29.73925511 30.76922724 -30 33 C-30.33 33 -30.66 33 -31 33 C-31.21278058 28.53160785 -30.59138085 25.17737474 -29 21 C-29.66 21 -30.32 21 -31 21 C-31.33 19.68 -31.66 18.36 -32 17 C-31.236875 17.103125 -30.47375 17.20625 -29.6875 17.3125 C-28.800625 17.209375 -27.91375 17.10625 -27 17 C-25.3553326 14.53673288 -25.3553326 14.53673288 -24 12 C-23.01 12 -22.02 12 -21 12 C-21 11.01 -21 10.02 -21 9 C-20.01 9 -19.02 9 -18 9 C-18 7.68 -18 6.36 -18 5 C-17.34 5 -16.68 5 -16 5 C-16 4.34 -16 3.68 -16 3 C-5.62642369 -1.77676538 -5.62642369 -1.77676538 0 0 Z " fill="#10B981" transform="translate(97,27)"/>
<path d="M0 0 C0.33 0 0.66 0 1 0 C1 11.55 1 23.1 1 35 C1.66 35 2.32 35 3 35 C3.99 40.445 3.99 40.445 5 46 C5.66 46 6.32 46 7 46 C7 46.66 7 47.32 7 48 C7.66 48 8.32 48 9 48 C9 49.98 9 51.96 9 54 C5.54124976 51.22876892 4.13228818 47.34132247 2.4375 43.375 C2.1273999 42.64933838 1.8172998 41.92367676 1.49780273 41.17602539 C-4.15703051 27.65741601 -4.8960085 14.01773864 0 0 Z " fill="#10B981" transform="translate(48,51)"/>
<path d="M0 0 C1.32 0.66 2.64 1.32 4 2 C-20.6080442 19.45763878 -20.6080442 19.45763878 -34 19 C-33.01 18.34 -32.02 17.68 -31 17 C-31.33 16.34 -31.66 15.68 -32 15 C-29.03 15.33 -26.06 15.66 -23 16 C-22.67 15.01 -22.34 14.02 -22 13 C-21.34 13 -20.68 13 -20 13 C-20 12.34 -20 11.68 -20 11 C-18.783125 10.896875 -17.56625 10.79375 -16.3125 10.6875 C-12.56474766 10.23644308 -10.15066831 9.13133445 -7 7 C-6.34 7 -5.68 7 -5 7 C-5 5.68 -5 4.36 -5 3 C-4.360625 2.690625 -3.72125 2.38125 -3.0625 2.0625 C-1.06389179 1.1654837 -1.06389179 1.1654837 0 0 Z " fill="#10B981" transform="translate(118,161)"/>
<path d="M0 0 C3.0121371 3.63228298 3.22583084 6.93148334 3.125 11.5625 C2.79521855 13.89633799 2.46138227 16.22960426 2.125 18.5625 C1.8806546 21.5388565 1.71837943 24.51784754 1.5625 27.5 C1.51931641 28.27923828 1.47613281 29.05847656 1.43164062 29.86132812 C1.32671923 31.76157117 1.2254755 33.66201669 1.125 35.5625 C0.795 35.5625 0.465 35.5625 0.125 35.5625 C0.0956092 31.91668402 0.07807126 28.27089913 0.0625 24.625 C0.05412109 23.60341797 0.04574219 22.58183594 0.03710938 21.52929688 C0.01768766 15.4503003 0.32679682 9.5898768 1.125 3.5625 C-6.21876076 2.98490084 -13.50598587 2.41511972 -20.875 2.5625 C-14.48314341 -1.01693969 -6.84104851 -3.42052426 0 0 Z " fill="#10B981" transform="translate(160.875,4.4375)"/>
<path d="M0 0 C0 0.33 0 0.66 0 1 C-9.63569173 1.18893513 -9.63569173 1.18893513 -14.04296875 -1.02734375 C-18.27143539 -2.41821323 -22.26783274 -2.25078084 -26.6875 -2.1875 C-27.55439453 -2.18685547 -28.42128906 -2.18621094 -29.31445312 -2.18554688 C-33.80941761 -2.29976426 -33.80941761 -2.29976426 -38 -1 C-39.54023996 -0.93049459 -41.08334988 -0.91547643 -42.625 -0.9375 C-43.85089844 -0.95103516 -43.85089844 -0.95103516 -45.1015625 -0.96484375 C-46.04128906 -0.98224609 -46.04128906 -0.98224609 -47 -1 C-37.50944848 -10.49055152 -10.82507777 -5.41253889 0 0 Z " fill="#10B981" transform="translate(170,80)"/>
<path d="M0 0 C2.33203125 2.12890625 2.33203125 2.12890625 4 4 C3.03900391 3.65775391 3.03900391 3.65775391 2.05859375 3.30859375 C1.19363281 3.02113281 0.32867187 2.73367187 -0.5625 2.4375 C-1.40941406 2.14746094 -2.25632813 1.85742188 -3.12890625 1.55859375 C-10.0650392 0.20911482 -16.62240966 3.05638636 -23.0390625 5.44726562 C-28.09643035 7.17048073 -31.02996973 7.06028041 -36 5 C-36.33 4.34 -36.66 3.68 -37 3 C-36.01 3.33 -35.02 3.66 -34 4 C-32.60560336 4.06665376 -31.20830125 4.08538199 -29.8125 4.0625 C-28.554375 4.041875 -27.29625 4.02125 -26 4 C-26.33 3.34 -26.66 2.68 -27 2 C-17.60223946 -1.9414105 -9.81266024 -4.82160542 0 0 Z " fill="#10B981" transform="translate(45,175)"/>
<path d="M0 0 C0.48284476 3.05712015 0.90302073 6.11976184 1.3125 9.1875 C1.44978516 10.05181641 1.58707031 10.91613281 1.72851562 11.80664062 C2.54731221 18.28257724 2.54731221 18.28257724 -0.3125 22.03125 C-2.51225355 23.64269737 -4.48170029 24.97402605 -7 26 C-6.8125 23.125 -6.8125 23.125 -6 20 C-3.4375 18.625 -3.4375 18.625 -1 18 C-1.17402344 17.30519531 -1.34804688 16.61039063 -1.52734375 15.89453125 C-2.05332633 12.67343131 -1.88327655 9.93090738 -1.5625 6.6875 C-1.40974609 5.08455078 -1.40974609 5.08455078 -1.25390625 3.44921875 C-1.17011719 2.64097656 -1.08632813 1.83273438 -1 1 C-1.66 1 -2.32 1 -3 1 C-3.33 1.99 -3.66 2.98 -4 4 C-5.8125 4.87890625 -5.8125 4.87890625 -8 5.5625 C-10.14541038 6.20681284 -10.14541038 6.20681284 -12 7 C-12.33 7.66 -12.66 8.32 -13 9 C-15.0625 9.625 -15.0625 9.625 -17 10 C-17 9.34 -17 8.68 -17 8 C-14.94241228 6.51925046 -12.91211348 5.18523151 -10.75 3.875 C-10.16347656 3.50246094 -9.57695312 3.12992187 -8.97265625 2.74609375 C-5.61330674 0.68518944 -4.04528996 0 0 0 Z " fill="#10B981" transform="translate(40,64)"/>
<path d="M0 0 C0.99 0.33 1.98 0.66 3 1 C2.49210937 1.38929687 1.98421875 1.77859375 1.4609375 2.1796875 C-7.25366507 9.26234202 -12.19974383 17.90289854 -14 29 C-14.5636261 34.65427642 -14.80698742 40.32276784 -15 46 C-15.33 46 -15.66 46 -16 46 C-16.33 38.08 -16.66 30.16 -17 22 C-16.34 21.67 -15.68 21.34 -15 21 C-14.34786708 18.97536745 -14.34786708 18.97536745 -14 17 C-13.34 17 -12.68 17 -12 17 C-11.814375 15.3603125 -11.814375 15.3603125 -11.625 13.6875 C-11 10 -11 10 -9 7 C-8.34 7 -7.68 7 -7 7 C-7 6.01 -7 5.02 -7 4 C-4 2 -4 2 0 2 C0 1.34 0 0.68 0 0 Z " fill="#10B981" transform="translate(116,102)"/>
<path d="M0 0 C0 0.66 0 1.32 0 2 C-0.66 2 -1.32 2 -2 2 C-2 2.99 -2 3.98 -2 5 C-2.66 5 -3.32 5 -4 5 C-4.33 5.99 -4.66 6.98 -5 8 C-5.804375 8.5775 -6.60875 9.155 -7.4375 9.75 C-10.64645139 12.56761585 -11.1308811 14.89143792 -12 19 C-12.66 19 -13.32 19 -14 19 C-13.773125 19.515625 -13.54625 20.03125 -13.3125 20.5625 C-12.82783411 24.34289392 -14.20629953 26.72185775 -16 30 C-18.1875 30.9375 -18.1875 30.9375 -20 31 C-19.06281165 23.35208023 -10.11844147 0 0 0 Z " fill="#10B981" transform="translate(23,74)"/>
<path d="M0 0 C0.33 0 0.66 0 1 0 C1.06058594 0.92683594 1.12117187 1.85367187 1.18359375 2.80859375 C1.26738281 4.00613281 1.35117188 5.20367187 1.4375 6.4375 C1.51871094 7.63246094 1.59992188 8.82742187 1.68359375 10.05859375 C1.67656114 12.88570244 1.67656114 12.88570244 3 14 C3.25342486 17.36735621 3.18523743 20.74924839 3.1875 24.125 C3.19974609 25.0634375 3.21199219 26.001875 3.22460938 26.96875 C3.23598682 32.38441351 2.79347586 36.88185941 1 42 C0.67 42 0.34 42 0 42 C-0.33 38.7 -0.66 35.4 -1 32 C-0.34 32 0.32 32 1 32 C0.9278125 31.44957031 0.855625 30.89914063 0.78125 30.33203125 C-0.34423391 20.24957119 -0.09168387 10.12895232 0 0 Z " fill="#10B981" transform="translate(160,27)"/>
<path d="M0 0 C2 2 2 2 2.23046875 4.1015625 C2.13889527 9.47942306 1.78848574 14.67772123 1 20 C0.67 20 0.34 20 0 20 C-0.06058594 19.37351562 -0.12117187 18.74703125 -0.18359375 18.1015625 C-0.26738281 17.28429687 -0.35117188 16.46703125 -0.4375 15.625 C-0.51871094 14.81289062 -0.59992188 14.00078125 -0.68359375 13.1640625 C-0.89090114 10.95727195 -0.89090114 10.95727195 -2 9 C-1.71887936 6.99199544 -1.38932033 4.98985949 -1 3 C-2.258125 3.144375 -3.51625 3.28875 -4.8125 3.4375 C-5.52019531 3.51871094 -6.22789062 3.59992188 -6.95703125 3.68359375 C-9.19396393 3.97170735 -9.19396393 3.97170735 -12 5 C-14.1875 4.0625 -14.1875 4.0625 -16 3 C-10.92162137 -0.38558575 -5.9459205 -0.29242232 0 0 Z " fill="#10B981" transform="translate(147,99)"/>
<path d="M0 0 C2.475 0.495 2.475 0.495 5 1 C5.07324542 5.54121624 5.05667174 9.92924295 4.5 14.4375 C3.61814778 22.24996543 3.92304511 30.15060096 4 38 C3.01 38.495 3.01 38.495 2 39 C0.28662288 31.56657927 -0.05988921 25.64363118 1.484375 18.1796875 C2.40785122 12.48491745 2.1531503 6.7516446 2 1 C1.34 0.67 0.68 0.34 0 0 Z " fill="#10B981" transform="translate(157,7)"/>
<path d="M0 0 C0.97299662 3.31026609 1.19346782 6.41709908 1.31640625 9.859375 C1.35830078 10.97441406 1.40019531 12.08945313 1.44335938 13.23828125 C1.48267578 14.39714844 1.52199219 15.55601563 1.5625 16.75 C1.62727539 18.51150391 1.62727539 18.51150391 1.69335938 20.30859375 C1.79934794 23.20561451 1.90141638 26.10271935 2 29 C2.66 29 3.32 29 4 29 C4.36463732 30.74784829 4.7163078 32.49840502 5.0625 34.25 C5.25972656 35.22453125 5.45695313 36.1990625 5.66015625 37.203125 C5.98397535 39.868119 5.85503199 41.48871723 5 44 C-0.58623238 30.68282103 -4.74676787 14.24030362 0 0 Z " fill="#10B981" transform="translate(2,105)"/>
<path d="M0 0 C1.22203125 -0.00257812 2.4440625 -0.00515625 3.703125 -0.0078125 C6.75 0.125 6.75 0.125 8.75 1.125 C10.34447464 1.20900529 11.94240545 1.23227467 13.5390625 1.22265625 C14.95058594 1.21782227 14.95058594 1.21782227 16.390625 1.21289062 C17.37546875 1.20451172 18.3603125 1.19613281 19.375 1.1875 C20.86386719 1.18073242 20.86386719 1.18073242 22.3828125 1.17382812 C24.8386016 1.16202145 27.29427104 1.145554 29.75 1.125 C30.245 2.115 30.245 2.115 30.75 3.125 C29.55922852 3.11976318 28.36845703 3.11452637 27.14160156 3.10913086 C22.7210363 3.09102212 18.30047431 3.07954647 13.87988281 3.07006836 C11.96711679 3.06504159 10.0543546 3.05821923 8.14160156 3.04956055 C5.3912664 3.03742252 2.64098207 3.0317551 -0.109375 3.02734375 C-1.39083405 3.01960182 -1.39083405 3.01960182 -2.69818115 3.01170349 C-3.49870911 3.01162796 -4.29923706 3.01155243 -5.12402344 3.01147461 C-5.82573669 3.009254 -6.52744995 3.00703339 -7.25042725 3.00474548 C-9.35595088 3.1313719 -11.22407628 3.55179979 -13.25 4.125 C-13.25 3.135 -13.25 2.145 -13.25 1.125 C-8.78262243 0.26167243 -4.54763063 -0.00967581 0 0 Z " fill="#10B981" transform="translate(109.25,22.875)"/>
<path d="M0 0 C0.65136719 1.74536133 0.65136719 1.74536133 1 4 C0.05957031 5.9987793 0.05957031 5.9987793 -1.421875 8.07421875 C-1.95296875 8.82380859 -2.4840625 9.57339844 -3.03125 10.34570312 C-3.5984375 11.11849609 -4.165625 11.89128906 -4.75 12.6875 C-5.30171875 13.47189453 -5.8534375 14.25628906 -6.421875 15.06445312 C-10.5924415 20.86414717 -10.5924415 20.86414717 -14 22 C-14.33 20.68 -14.66 19.36 -15 18 C-14.195625 17.7525 -13.39125 17.505 -12.5625 17.25 C-9.828919 16.27761141 -9.828919 16.27761141 -9.1875 13.875 C-9.125625 13.25625 -9.06375 12.6375 -9 12 C-8.01 12 -7.02 12 -6 12 C-5.9175 10.88625 -5.835 9.7725 -5.75 8.625 C-5.37875 6.830625 -5.37875 6.830625 -5 5 C-3 3.75 -3 3.75 -1 3 C-0.67 2.01 -0.34 1.02 0 0 Z " fill="#10B981" transform="translate(140,135)"/>
<path d="M0 0 C0.66 0 1.32 0 2 0 C1.063972 5.61616798 -0.37132726 9.96615172 -3.0625 15 C-5.79940712 20.1941303 -6.80521328 24.15639831 -7 30 C-7.33 30 -7.66 30 -8 30 C-8.24875561 27.73122896 -8.47339246 25.45980265 -8.6875 23.1875 C-8.81511719 21.92292969 -8.94273437 20.65835938 -9.07421875 19.35546875 C-9 16 -9 16 -7.5859375 14.18359375 C-7.06257812 13.79300781 -6.53921875 13.40242187 -6 13 C-5.649375 12.29875 -5.29875 11.5975 -4.9375 10.875 C-4 9 -4 9 -2 8 C-1.62599214 5.67284 -1.29235267 3.33882138 -1 1 C-0.67 0.67 -0.34 0.34 0 0 Z " fill="#10B981" transform="translate(204,151)"/>
<path d="M0 0 C4.24595621 2.22479055 6.82186589 4.83784624 9.8125 8.5625 C10.60269531 9.53316406 11.39289063 10.50382812 12.20703125 11.50390625 C14 14 14 14 14 16 C11.03 15.505 11.03 15.505 8 15 C7.87625 14.360625 7.7525 13.72125 7.625 13.0625 C7.41875 12.381875 7.2125 11.70125 7 11 C6.34 10.67 5.68 10.34 5 10 C0 2.5 0 2.5 0 0 Z " fill="#10B981" transform="translate(184,90)"/>
<path d="M0 0 C-2.97038105 2.97038105 -6.64466437 4.13085515 -10.46875 5.78125 C-13.09364845 6.87341483 -13.09364845 6.87341483 -15 9 C-15.99 9 -16.98 9 -18 9 C-18 7.68 -18 6.36 -18 5 C-17.34 5 -16.68 5 -16 5 C-16 4.34 -16 3.68 -16 3 C-5.62642369 -1.77676538 -5.62642369 -1.77676538 0 0 Z " fill="#10B981" transform="translate(97,27)"/>
<path d="M0 0 C0.66 0.33 1.32 0.66 2 1 C0.98973214 3.63884173 0.37432414 4.78982902 -2.12890625 6.1953125 C-3.33353516 6.65550781 -3.33353516 6.65550781 -4.5625 7.125 C-7.99197579 8.25321898 -7.99197579 8.25321898 -10 11 C-15.52429247 12.74451341 -20.22850374 13.20612487 -26 13 C-22.87487175 11.30413657 -19.78267773 10.30603137 -16.375 9.3125 C-10.05081283 7.26918154 -5.19090711 4.08841356 0 0 Z " fill="#10B981" transform="translate(106,149)"/>
<path d="M0 0 C0.33 0 0.66 0 1 0 C1.33 6.27 1.66 12.54 2 19 C-1.13349732 20.04449911 -1.98968256 19.93423645 -5 19 C-5 18.01 -5 17.02 -5 16 C-5.66 15.67 -6.32 15.34 -7 15 C-5.35 15 -3.7 15 -2 15 C-1.93941406 14.08476562 -1.87882813 13.16953125 -1.81640625 12.2265625 C-1.69072266 10.44378906 -1.69072266 10.44378906 -1.5625 8.625 C-1.48128906 7.44164062 -1.40007812 6.25828125 -1.31640625 5.0390625 C-1 2 -1 2 0 0 Z " fill="#10B981" transform="translate(178,165)"/>
<path d="M0 0 C17.70521542 1.70521542 17.70521542 1.70521542 19 3 C21.18292774 3.23481693 23.37203174 3.41363323 25.5625 3.5625 C27.35880859 3.68818359 27.35880859 3.68818359 29.19140625 3.81640625 C30.11824219 3.87699219 31.04507813 3.93757812 32 4 C32 4.33 32 4.66 32 5 C21.71721178 5.33249734 11.8690474 5.44232373 2 2 C1.34 1.34 0.68 0.68 0 0 Z " fill="#10B981" transform="translate(120,194)"/>
<path d="M0 0 C0.33 0 0.66 0 1 0 C1 7.26 1 14.52 1 22 C0.34 22.33 -0.32 22.66 -1 23 C-1.2165625 24.670625 -1.2165625 24.670625 -1.4375 26.375 C-1.98932074 29.93117808 -2.20448001 30.93374609 -5 33 C-5 31.02 -5 29.04 -5 27 C-4.34 27 -3.68 27 -3 27 C-2.2301162 21.00739093 -1.56060661 15.00951707 -0.9375 9 C-0.84662109 8.12988281 -0.75574219 7.25976562 -0.66210938 6.36328125 C-0.44068437 4.24226274 -0.22023954 2.12114194 0 0 Z " fill="#10B981" transform="translate(205,129)"/>
<path d="M0 0 C0.33 0 0.66 0 1 0 C1 3.63 1 7.26 1 11 C1.66 11 2.32 11 3 11 C3 11.99 3 12.98 3 14 C2.01 14 1.02 14 0 14 C0.33 14.66 0.66 15.32 1 16 C1.07033769 17.87379605 1.0843022 19.75001102 1.0625 21.625 C1.05347656 22.62789062 1.04445313 23.63078125 1.03515625 24.6640625 C1.02355469 25.43492187 1.01195312 26.20578125 1 27 C0.34 26.67 -0.32 26.34 -1 26 C-2.86345796 17.30386283 -1.20816547 8.69679441 0 0 Z " fill="#10B981" transform="translate(7,151)"/>
<path d="M0 0 C1.65 0 3.3 0 5 0 C5.69710731 1.28650706 6.38242876 2.57940665 7.0625 3.875 C7.44535156 4.59429687 7.82820312 5.31359375 8.22265625 6.0546875 C8.47917969 6.69664063 8.73570312 7.33859375 9 8 C8.67 8.66 8.34 9.32 8 10 C7.34 9.67 6.68 9.34 6 9 C5.67 9.66 5.34 10.32 5 11 C4.67 9.35 4.34 7.7 4 6 C3.071875 6.309375 3.071875 6.309375 2.125 6.625 C1.42375 6.74875 0.7225 6.8725 0 7 C-0.66 6.34 -1.32 5.68 -2 5 C-2 4.01 -2 3.02 -2 2 C-1.34 2 -0.68 2 0 2 C0 1.34 0 0.68 0 0 Z " fill="#10B981" transform="translate(194,106)"/>
<path d="M0 0 C0.66 0.33 1.32 0.66 2 1 C1.01 1.33 0.02 1.66 -1 2 C-1 2.99 -1 3.98 -1 5 C-0.21625 5.12375 0.5675 5.2475 1.375 5.375 C4 6 4 6 6 8 C8.31765729 8.71927295 10.65095874 9.3909893 13 10 C12.67 10.66 12.34 11.32 12 12 C12.66 12.33 13.32 12.66 14 13 C14 13.66 14 14.32 14 15 C8.0314641 13.58639939 2.36207354 10.30172864 -2 6 C-2.2890625 3.26953125 -2.2890625 3.26953125 -2 1 C-1.34 0.67 -0.68 0.34 0 0 Z " fill="#10B981" transform="translate(104,179)"/>
<path d="M0 0 C0.93275334 3.10678613 1.02068874 5.70806621 0.875 8.9375 C0.78547685 15.56221304 2.29918437 21.63206529 4 28 C-0.00908029 24.72428806 -0.66106349 22.1963977 -1.25 17.125 C-1.39953125 15.93132812 -1.5490625 14.73765625 -1.703125 13.5078125 C-2.50220264 4.0660793 -2.50220264 4.0660793 0 0 Z " fill="#10B981" transform="translate(65,60)"/>
<path d="M0 0 C4.70724361 7.06086541 4.25179798 14.22001544 4.125 22.4375 C4.11597656 23.55060547 4.10695312 24.66371094 4.09765625 25.81054688 C4.0742224 28.54059023 4.041414 31.2701801 4 34 C3.67 34 3.34 34 3 34 C2.98018066 33.39003174 2.96036133 32.78006348 2.93994141 32.15161133 C2.84432124 29.37149467 2.73479295 26.59209154 2.625 23.8125 C2.5940625 22.85279297 2.563125 21.89308594 2.53125 20.90429688 C2.49257812 19.97294922 2.45390625 19.04160156 2.4140625 18.08203125 C2.3826416 17.22843018 2.3512207 16.3748291 2.31884766 15.49536133 C1.96607817 12.73452145 1.08403642 10.55231546 0 8 C-0.23608151 5.29450593 -0.09234983 2.72432002 0 0 Z " fill="#10B981" transform="translate(203,116)"/>
<path d="M0 0 C0.99 0.33 1.98 0.66 3 1 C2.48050781 1.42410156 1.96101563 1.84820312 1.42578125 2.28515625 C-3.20435336 6.17926207 -6.62625022 9.99049275 -10 15 C-10.33 15 -10.66 15 -11 15 C-11.20086443 11.28400809 -11.1519437 10.22791555 -9 7 C-8.34 7 -7.68 7 -7 7 C-7 6.01 -7 5.02 -7 4 C-4 2 -4 2 0 2 C0 1.34 0 0.68 0 0 Z " fill="#10B981" transform="translate(116,102)"/>
<path d="M0 0 C1.02222656 0.25007812 2.04445313 0.50015625 3.09765625 0.7578125 C6.19967555 1.97813921 7.77510515 3.3755412 9.9375 5.875 C9.33164062 5.64683594 8.72578125 5.41867188 8.1015625 5.18359375 C1.65630086 2.97237322 -3.36808151 2.69279418 -10.0625 3.875 C-10.3925 2.885 -10.7225 1.895 -11.0625 0.875 C-6.89700389 -1.22692621 -4.48100648 -1.16698778 0 0 Z " fill="#10B981" transform="translate(39.0625,173.125)"/>
<path d="M0 0 C6.45054982 1.35253464 12.71105679 3.03060233 19 5 C19 5.33 19 5.66 19 6 C17.02 6 15.04 6 13 6 C12.67 6.66 12.34 7.32 12 8 C12 7.34 12 6.68 12 6 C11.13375 6.103125 10.2675 6.20625 9.375 6.3125 C4.74110256 5.88343542 3.28900932 4.21069957 0 1 C0 0.67 0 0.34 0 0 Z " fill="#10B981" transform="translate(42,156)"/>
<path d="M0 0 C0.66 0 1.32 0 2 0 C2 0.99 2 1.98 2 3 C2.66 3 3.32 3 4 3 C4.66 6.63 5.32 10.26 6 14 C6.66 14 7.32 14 8 14 C8 14.66 8 15.32 8 16 C8.66 16 9.32 16 10 16 C10 17.98 10 19.96 10 22 C7.74167306 19.93142504 6.39933877 18.11407378 5.17578125 15.3125 C4.71655273 14.26449219 4.71655273 14.26449219 4.24804688 13.1953125 C3.78495117 12.10863281 3.78495117 12.10863281 3.3125 11 C2.99216797 10.27554688 2.67183594 9.55109375 2.34179688 8.8046875 C1.01112267 5.72909936 0 3.38596407 0 0 Z " fill="#10B981" transform="translate(47,83)"/>
<path d="M0 0 C5.61 0 11.22 0 17 0 C17 0.33 17 0.66 17 1 C15.65808594 1.25523438 15.65808594 1.25523438 14.2890625 1.515625 C6.8207868 3.01246491 -0.05858496 4.84917336 -7 8 C-7 7.34 -7 6.68 -7 6 C-4.69 4.68 -2.38 3.36 0 2 C0 1.34 0 0.68 0 0 Z " fill="#10B981" transform="translate(126,94)"/>
<path d="M0 0 C1.32 0.66 2.64 1.32 4 2 C1.96453936 3.46770604 -0.07764543 4.92404872 -2.125 6.375 C-2.97964844 6.99375 -2.97964844 6.99375 -3.8515625 7.625 C-7.44717272 10.15827084 -10.70703036 11.81258287 -15 13 C-11.82679218 9.46413986 -9.83256305 7.41421969 -5 7 C-5 5.68 -5 4.36 -5 3 C-4.360625 2.690625 -3.72125 2.38125 -3.0625 2.0625 C-1.06389179 1.1654837 -1.06389179 1.1654837 0 0 Z " fill="#10B981" transform="translate(118,161)"/>
<path d="M0 0 C2 2 2 2 2.1953125 5.2578125 C2.17210937 6.53398437 2.14890625 7.81015625 2.125 9.125 C2.10695313 10.40632812 2.08890625 11.68765625 2.0703125 13.0078125 C2.04710937 13.99523437 2.02390625 14.98265625 2 16 C2.89976563 15.67257813 3.79953125 15.34515625 4.7265625 15.0078125 C8.76379718 13.76484526 11.80777316 13.85544045 16 14 C16 14.33 16 14.66 16 15 C15.43152344 15.12117187 14.86304688 15.24234375 14.27734375 15.3671875 C13.50519531 15.53476563 12.73304687 15.70234375 11.9375 15.875 C11.18339844 16.03742188 10.42929687 16.19984375 9.65234375 16.3671875 C6.40840366 17.1411467 3.20667302 18.08380771 0 19 C0 12.73 0 6.46 0 0 Z " fill="#10B981" transform="translate(25,141)"/>
<path d="M0 0 C0.33 0 0.66 0 1 0 C1.64625456 3.06241127 2.29192853 6.12494467 2.9375 9.1875 C3.11990234 10.05181641 3.30230469 10.91613281 3.49023438 11.80664062 C4.34595855 15.86744081 5.19907784 19.92794314 6 24 C4.0625 23.5 4.0625 23.5 2 22 C1.35591114 19.32925221 1.21846869 16.7527055 1 14 C0.67 13.67 0.34 13.34 0 13 C-0.07258946 10.81360547 -0.08373783 8.62499611 -0.0625 6.4375 C-0.05347656 5.23996094 -0.04445313 4.04242188 -0.03515625 2.80859375 C-0.02355469 1.88175781 -0.01195313 0.95492187 0 0 Z " fill="#10B981" transform="translate(19,117)"/>
<path d="M0 0 C2.16874252 0.50603992 3.99967627 0.99983813 6 2 C6.309375 2.825 6.61875 3.65 6.9375 4.5 C7.288125 5.325 7.63875 6.15 8 7 C8.99 7.33 9.98 7.66 11 8 C12.125 15.625 12.125 15.625 11 19 C10.62488281 18.21496094 10.24976562 17.42992187 9.86328125 16.62109375 C6.96996707 10.68141854 4.0415339 5.23022034 0 0 Z " fill="#10B981" transform="translate(68,117)"/>
<path d="M0 0 C0.33 0 0.66 0 1 0 C0.875 3.25 0.875 3.25 0 7 C-2.9375 9.1875 -2.9375 9.1875 -6 11 C-7.38868516 13.10039331 -7.38868516 13.10039331 -8 15 C-8.66 15 -9.32 15 -10 15 C-8.59790456 10.92584833 -6.65552322 8.01720177 -3.9375 4.6875 C-3.22464844 3.80449219 -2.51179688 2.92148437 -1.77734375 2.01171875 C-1.19082031 1.34785156 -0.60429688 0.68398438 0 0 Z " fill="#10B981" transform="translate(63,26)"/>
<path d="M0 0 C1.50156874 3.00313748 1.09281204 5.79067522 1.0625 9.125 C1.05347656 10.40632813 1.04445313 11.68765625 1.03515625 13.0078125 C1.02355469 13.99523437 1.01195312 14.98265625 1 16 C0.34 16 -0.32 16 -1 16 C-1 15.34 -1 14.68 -1 14 C-1.66 14 -2.32 14 -3 14 C-3.0272415 12.58344207 -3.04650467 11.16672955 -3.0625 9.75 C-3.07410156 8.96109375 -3.08570313 8.1721875 -3.09765625 7.359375 C-3.00251462 5.06075329 -2.76316406 3.16949782 -2 1 C-1.34 0.67 -0.68 0.34 0 0 Z " fill="#10B981" transform="translate(5,104)"/>
<path d="M0 0 C0.33 0 0.66 0 1 0 C2.25 6.625 2.25 6.625 0 10 C0.33 10.99 0.66 11.98 1 13 C0.34 13.66 -0.32 14.32 -1 15 C-1.66 15 -2.32 15 -3 15 C-3.3152595 9.01006953 -2.68219822 5.36439644 0 0 Z " fill="#10B981" transform="translate(52,41)"/>
<path d="M0 0 C0.33 0 0.66 0 1 0 C1.82351864 6.38226945 2.12086218 12.56744599 2 19 C-1.23455099 15.54413763 -1.35490655 13.02236005 -1.25 8.375 C-1.23453125 7.22773438 -1.2190625 6.08046875 -1.203125 4.8984375 C-1 2 -1 2 0 0 Z " fill="#10B981" transform="translate(195,172)"/>
<path d="M0 0 C1.10555457 3.4579752 0.98902656 6.39968291 0.6875 10 C0.60886719 11.03125 0.53023437 12.0625 0.44921875 13.125 C0.02470595 15.84188191 -0.61589077 17.64983902 -2 20 C-2.66 20 -3.32 20 -4 20 C-2.9413873 13.24289769 -1.77874156 6.60675438 0 0 Z " fill="#10B981" transform="translate(130,103)"/>
<path d="M0 0 C0 2.64 0 5.28 0 8 C-0.33 8 -0.66 8 -1 8 C-1 5.69 -1 3.38 -1 1 C-1.66 1 -2.32 1 -3 1 C-3.33 1.99 -3.66 2.98 -4 4 C-5.8125 4.87890625 -5.8125 4.87890625 -8 5.5625 C-10.14541038 6.20681284 -10.14541038 6.20681284 -12 7 C-12.33 7.66 -12.66 8.32 -13 9 C-15.0625 9.625 -15.0625 9.625 -17 10 C-17 9.34 -17 8.68 -17 8 C-14.94241228 6.51925046 -12.91211348 5.18523151 -10.75 3.875 C-10.16347656 3.50246094 -9.57695312 3.12992187 -8.97265625 2.74609375 C-5.61330674 0.68518944 -4.04528996 0 0 0 Z " fill="#10B981" transform="translate(40,64)"/>
<path d="M0 0 C-5.73115109 3.59523599 -10.21017493 5.62964591 -17 6 C-14.64350301 3.31127557 -12.36421235 2.0806149 -9.0625 0.75 C-8.20785156 0.39421875 -7.35320312 0.0384375 -6.47265625 -0.328125 C-3.82854634 -1.04658772 -2.54131429 -0.91982605 0 0 Z " fill="#10B981" transform="translate(94,10)"/>
<path d="M0 0 C-9.86945201 3.15743032 -18.64458912 4.15303563 -29 4 C-29 3.67 -29 3.34 -29 3 C-20.585 2.505 -20.585 2.505 -12 2 C-12 1.34 -12 0.68 -12 0 C-3.96428571 -1.20535714 -3.96428571 -1.20535714 0 0 Z " fill="#10B981" transform="translate(152,7)"/>
<path d="M0 0 C0.99 0.33 1.98 0.66 3 1 C4.13487578 3.93886906 4.16367591 6.8742796 4.1875 10 C4.20167969 10.845625 4.21585938 11.69125 4.23046875 12.5625 C4 15 4 15 2 19 C1.34 12.73 0.68 6.46 0 0 Z " fill="#10B981" transform="translate(22,140)"/>
<path d="M0 0 C1 2 1 2 0.2578125 4.42578125 C-0.11601562 5.37839844 -0.48984375 6.33101563 -0.875 7.3125 C-2.26442306 10.87350386 -3.35423055 14.22843163 -4 18 C-4.33 18 -4.66 18 -5 18 C-5.33 14.37 -5.66 10.74 -6 7 C-5.34 7 -4.68 7 -4 7 C-3.34 5.68 -2.68 4.36 -2 3 C-2.66 3 -3.32 3 -4 3 C-4 2.34 -4 1.68 -4 1 C-2.68 0.67 -1.36 0.34 0 0 Z " fill="#10B981" transform="translate(25,99)"/>
<path d="M0 0 C0 0.66 0 1.32 0 2 C-1.65 2.33 -3.3 2.66 -5 3 C-5 3.99 -5 4.98 -5 6 C-5.928125 6.268125 -6.85625 6.53625 -7.8125 6.8125 C-10.88880839 7.95857567 -11.83330936 8.73482342 -14 11 C-16.1875 11.6875 -16.1875 11.6875 -18 12 C-13.82029779 7.41581048 -6.53552704 0 0 0 Z " fill="#10B981" transform="translate(118,81)"/>
<path d="M0 0 C0 0.66 0 1.32 0 2 C-0.66 2 -1.32 2 -2 2 C-2 2.99 -2 3.98 -2 5 C-2.66 5 -3.32 5 -4 5 C-4.33 5.99 -4.66 6.98 -5 8 C-6.63604196 9.37073786 -8.30678061 10.70055256 -10 12 C-11.35147138 13.31494512 -12.69112542 14.64264858 -14 16 C-12.54755344 11.48586212 -10.19375837 8.65514172 -7 5.1875 C-6.113125 4.21167969 -5.22625 3.23585938 -4.3125 2.23046875 C-2 0 -2 0 0 0 Z " fill="#10B981" transform="translate(23,74)"/>
<path d="M0 0 C1.078125 3.734375 1.078125 3.734375 0.375 6.125 C-1.41247034 8.56245955 -3.1632534 9.10418528 -6 10 C-6 10.66 -6 11.32 -6 12 C-6.66 12 -7.32 12 -8 12 C-6.49087042 7.01987239 -3.44338151 3.75740058 0 0 Z " fill="#10B981" transform="translate(97,96)"/>
<path d="M0 0 C0.84755859 0.00966797 1.69511719 0.01933594 2.56835938 0.02929688 C3.44943359 0.05443359 4.33050781 0.07957031 5.23828125 0.10546875 C6.13095703 0.11900391 7.02363281 0.13253906 7.94335938 0.14648438 C10.14644291 0.18182796 12.34830707 0.23116382 14.55078125 0.29296875 C14.22078125 0.95296875 13.89078125 1.61296875 13.55078125 2.29296875 C8.60078125 2.29296875 3.65078125 2.29296875 -1.44921875 2.29296875 C-1.77921875 2.95296875 -2.10921875 3.61296875 -2.44921875 4.29296875 C-4.09921875 3.96296875 -5.74921875 3.63296875 -7.44921875 3.29296875 C-5.08036651 0.42052834 -3.69085058 -0.07431243 0 0 Z " fill="#10B981" transform="translate(65.44921875,161.70703125)"/>
<path d="M0 0 C5.1576857 1.41836357 9.79975258 3.67391575 14 7 C14 7.66 14 8.32 14 9 C12.35 9 10.7 9 9 9 C8.67 8.01 8.34 7.02 8 6 C7.01 5.67 6.02 5.34 5 5 C5 4.34 5 3.68 5 3 C2.525 2.01 2.525 2.01 0 1 C0 0.67 0 0.34 0 0 Z " fill="#10B981" transform="translate(170,81)"/>
<path d="M0 0 C2.33937572 2.33937572 4.52124775 4.69426628 6.6875 7.1875 C7.31011719 7.90292969 7.93273437 8.61835937 8.57421875 9.35546875 C9.27998047 10.16951172 9.27998047 10.16951172 10 11 C9.01 11.33 8.02 11.66 7 12 C7 11.34 7 10.68 7 10 C5.35 10 3.7 10 2 10 C1.34 6.7 0.68 3.4 0 0 Z " fill="#10B981" transform="translate(72,93)"/>
<path d="M0 0 C5.95507399 0.3916035 10.62819824 1.37124595 16 4 C16 4.33 16 4.66 16 5 C9.741346 5.5326514 5.54891215 3.81849506 0 1 C0 0.67 0 0.34 0 0 Z " fill="#10B981" transform="translate(154,76)"/>
<path d="M0 0 C2.475 0.495 2.475 0.495 5 1 C5.42589023 6.53657294 3.905247 10.89665983 2 16 C1.67 16 1.34 16 1 16 C0.78721942 11.53160785 1.40861915 8.17737474 3 4 C2.34 4 1.68 4 1 4 C0.67 2.68 0.34 1.36 0 0 Z " fill="#10B981" transform="translate(65,44)"/>
<path d="M0 0 C0.33 0 0.66 0 1 0 C1.06058594 0.92683594 1.12117187 1.85367187 1.18359375 2.80859375 C1.26738281 4.00613281 1.35117188 5.20367187 1.4375 6.4375 C1.51871094 7.63246094 1.59992188 8.82742187 1.68359375 10.05859375 C1.67656114 12.88570244 1.67656114 12.88570244 3 14 C3.07205511 15.68608966 3.08386068 17.37500659 3.0625 19.0625 C3.05347656 19.98160156 3.04445312 20.90070312 3.03515625 21.84765625 C3.02355469 22.55792969 3.01195312 23.26820312 3 24 C2.67 24 2.34 24 2 24 C-0.63537118 16.09388645 -0.17981101 8.23134837 0 0 Z " fill="#10B981" transform="translate(160,27)"/>
<path d="M0 0 C2.79209106 0.93069702 4.02311684 1.65106596 5.8125 3.9375 C4.74 3.545625 3.6675 3.15375 2.5625 2.75 C1.325 2.481875 0.0875 2.21375 -1.1875 1.9375 C-3.37788423 3.30918238 -3.37788423 3.30918238 -5.1875 4.9375 C-7.4375 4.625 -7.4375 4.625 -9.1875 3.9375 C-4.07445652 -0.0798913 -4.07445652 -0.0798913 0 0 Z " fill="#10B981" transform="translate(119.1875,172.0625)"/>
<path d="M0 0 C2.08940868 3.13411302 2.27364412 3.97450472 2.25 7.5625 C2.25515625 8.34753906 2.2603125 9.13257813 2.265625 9.94140625 C2 12 2 12 0 14 C-1 13 -1 13 -1.1328125 11.07421875 C-1.13023437 10.28660156 -1.12765625 9.49898437 -1.125 8.6875 C-1.12757813 7.90761719 -1.13015625 7.12773437 -1.1328125 6.32421875 C-1.00499912 4.08748461 -0.61913869 2.14733021 0 0 Z " fill="#10B981" transform="translate(180,166)"/>
<path d="M0 0 C5.80205656 5.64524422 5.80205656 5.64524422 8 9 C8 9.66 8 10.32 8 11 C6.68 11 5.36 11 4 11 C3.32880451 9.5437455 2.66318193 8.08492133 2 6.625 C1.62875 5.81289062 1.2575 5.00078125 0.875 4.1640625 C0 2 0 2 0 0 Z " fill="#10B981" transform="translate(190,95)"/>
<path d="M0 0 C0 3.60122522 -1.17797949 5.02873556 -3.48828125 7.703125 C-5.79204004 9.67947621 -8.04101995 9.86237302 -11 10 C-9.6875 8.5 -9.6875 8.5 -8 7 C-7.01 7 -6.02 7 -5 7 C-4.731875 6.21625 -4.46375 5.4325 -4.1875 4.625 C-3 2 -3 2 0 0 Z " fill="#10B981" transform="translate(111,147)"/>
<path d="M0 0 C0 0.66 0 1.32 0 2 C-1.66666667 3.66666667 -3.33333333 5.33333333 -5 7 C-5 6.34 -5 5.68 -5 5 C-6.65 5.66 -8.3 6.32 -10 7 C-3.18421053 0 -3.18421053 0 0 0 Z " fill="#10B981" transform="translate(77,16)"/>
<path d="M0 0 C3.3 0.33 6.6 0.66 10 1 C7.50494038 3.49505962 6.32671112 3.35948376 2.875 3.625 C1.96492188 3.69976562 1.05484375 3.77453125 0.1171875 3.8515625 C-0.93082031 3.92503906 -0.93082031 3.92503906 -2 4 C-1.01 3.34 -0.02 2.68 1 2 C0.67 1.34 0.34 0.68 0 0 Z " fill="#10B981" transform="translate(86,176)"/>
<path d="M0 0 C2.78073473 0.65465728 5.44317042 1.45348268 8.125 2.4375 C8.80820312 2.68371094 9.49140625 2.92992187 10.1953125 3.18359375 C12 4 12 4 14 6 C10.48294042 5.34728444 7.10674923 4.48606976 3.6875 3.4375 C2.80449219 3.16808594 1.92148437 2.89867187 1.01171875 2.62109375 C0.34785156 2.41613281 -0.31601562 2.21117187 -1 2 C-0.67 1.34 -0.34 0.68 0 0 Z " fill="#10B981" transform="translate(36,171)"/>
<path d="M0 0 C0.66 0 1.32 0 2 0 C2 3.63 2 7.26 2 11 C1.34 10.67 0.68 10.34 0 10 C-0.44921875 7.96875 -0.44921875 7.96875 -0.6875 5.5 C-0.77386719 4.6853125 -0.86023438 3.870625 -0.94921875 3.03125 C-0.96597656 2.3609375 -0.98273437 1.690625 -1 1 C-0.67 0.67 -0.34 0.34 0 0 Z " fill="#10B981" transform="translate(6,167)"/>
<path d="M0 0 C2.475 0.495 2.475 0.495 5 1 C5.33 1.99 5.66 2.98 6 4 C5.34 4.66 4.68 5.32 4 6 C2.68 6 1.36 6 0 6 C0 4.02 0 2.04 0 0 Z " fill="#10B981" transform="translate(119,156)"/>
<path d="M0 0 C4.875 2.625 4.875 2.625 6 6 C3.92446352 6.5534764 2.15634036 7 0 7 C-0.93423645 3.98968256 -1.04449911 3.13349732 0 0 Z " fill="#10B981" transform="translate(83,105)"/>
<path d="M0 0 C-1.9626228 2.04795423 -3.4277307 2.94976638 -6.26953125 3.19921875 C-8.51954383 3.18858877 -10.75385562 3.12958525 -13 3 C-9.25711729 -0.74288271 -5.09766283 -0.09803198 0 0 Z " fill="#10B981" transform="translate(136,76)"/>
<path d="M0 0 C0.66 0 1.32 0 2 0 C1.33035714 8.03571429 1.33035714 8.03571429 -2 12 C-1.85962479 10.18706911 -1.71255111 8.3746557 -1.5625 6.5625 C-1.48128906 5.55316406 -1.40007812 4.54382813 -1.31640625 3.50390625 C-1 1 -1 1 0 0 Z " fill="#10B981" transform="translate(145,119)"/>
<path d="M0 0 C0.99 0 1.98 0 3 0 C6.34821429 6.96428571 6.34821429 6.96428571 5 11 C4.73445313 10.44570312 4.46890625 9.89140625 4.1953125 9.3203125 C3.84210938 8.59585938 3.48890625 7.87140625 3.125 7.125 C2.77695313 6.40570313 2.42890625 5.68640625 2.0703125 4.9453125 C1.03442457 2.84864981 1.03442457 2.84864981 -1 1 C-0.67 0.67 -0.34 0.34 0 0 Z " fill="#10B981" transform="translate(72,117)"/>
<path d="M0 0 C4.62609198 -0.3227506 7.28026121 0.15549386 11 3 C11 3.66 11 4.32 11 5 C6.12637153 4.54663921 3.60957611 3.2910841 0 0 Z " fill="#10B981" transform="translate(164,81)"/>
<path d="M0 0 C0.66 0.33 1.32 0.66 2 1 C1.01 1.33 0.02 1.66 -1 2 C-1 2.99 -1 3.98 -1 5 C-0.21625 5.0825 0.5675 5.165 1.375 5.25 C4 6 4 6 5.3125 8.0625 C5.6528125 9.0215625 5.6528125 9.0215625 6 10 C3.0280615 8.87548273 0.66559313 7.77706209 -2 6 C-2.1875 3.375 -2.1875 3.375 -2 1 C-1.34 0.67 -0.68 0.34 0 0 Z " fill="#10B981" transform="translate(104,179)"/>
<path d="M0 0 C1.15628906 -0.03867188 1.15628906 -0.03867188 2.3359375 -0.078125 C5.14530769 0.32458336 6.50766036 1.41303867 8.625 3.25 C6.87467156 3.10816304 5.12474466 2.96136571 3.375 2.8125 C2.40046875 2.73128906 1.4259375 2.65007812 0.421875 2.56640625 C-1.93961753 2.29925416 -4.09401065 1.89628032 -6.375 1.25 C-4.06222219 0.09361109 -2.57408779 0.05131072 0 0 Z " fill="#10B981" transform="translate(162.375,177.75)"/>
<path d="M0 0 C10.15317287 0.35010941 10.15317287 0.35010941 13.6875 3.0625 C14.120625 3.701875 14.55375 4.34125 15 5 C14.33613281 4.79503906 13.67226563 4.59007812 12.98828125 4.37890625 C12.10527344 4.10949219 11.22226562 3.84007812 10.3125 3.5625 C9.44238281 3.29566406 8.57226562 3.02882812 7.67578125 2.75390625 C5.12974079 2.03655471 2.5996577 1.482459 0 1 C0 0.67 0 0.34 0 0 Z " fill="#10B981" transform="translate(34,174)"/>
<path d="M0 0 C0 0.99 0 1.98 0 3 C-1.62324086 3.22162329 -3.248721 3.42689803 -4.875 3.625 C-6.23238281 3.79902344 -6.23238281 3.79902344 -7.6171875 3.9765625 C-8.40351562 3.98429688 -9.18984375 3.99203125 -10 4 C-10.66 3.34 -11.32 2.68 -12 2 C-10.37548581 1.66430703 -8.75037083 1.3315204 -7.125 1 C-6.22007813 0.814375 -5.31515625 0.62875 -4.3828125 0.4375 C-2 0 -2 0 0 0 Z " fill="#10B981" transform="translate(92,160)"/>
<path d="M0 0 C0.6875 1.6875 0.6875 1.6875 1 4 C-0.1875 6.6875 -0.1875 6.6875 -2 9 C-4.1875 9.8125 -4.1875 9.8125 -6 10 C-4.34832443 6.4213696 -2.21713508 3.25179812 0 0 Z " fill="#10B981" transform="translate(121,132)"/>
<path d="M0 0 C0.99 0.33 1.98 0.66 3 1 C4.2063366 6.22745859 3.75612577 10.76528314 3 16 C2.67 16 2.34 16 2 16 C1.93941406 15.18015625 1.87882813 14.3603125 1.81640625 13.515625 C1.73261719 12.43796875 1.64882812 11.3603125 1.5625 10.25 C1.48128906 9.18265625 1.40007812 8.1153125 1.31640625 7.015625 C1.05909227 4.56320038 0.68187782 2.36078709 0 0 Z " fill="#10B981" transform="translate(185,118)"/>
<path d="M0 0 C2.64465038 3.1254959 3.84414715 6.08788267 5 10 C4.01 9.67 3.02 9.34 2 9 C1.67 9.66 1.34 10.32 1 11 C0.4254048 7.26513121 0 3.78706732 0 0 Z " fill="#10B981" transform="translate(198,106)"/>
<path d="M0 0 C0.33 0.66 0.66 1.32 1 2 C-0.24891614 2.48198463 -1.49918808 2.96045677 -2.75 3.4375 C-3.79414062 3.83775391 -3.79414062 3.83775391 -4.859375 4.24609375 C-6.89059003 4.96146693 -8.9035291 5.51365652 -11 6 C-10.67 5.34 -10.34 4.68 -10 4 C-9.34 4 -8.68 4 -8 4 C-8 3.34 -8 2.68 -8 2 C-5.36 1.34 -2.72 0.68 0 0 Z " fill="#10B981" transform="translate(85,14)"/>
<path d="M0 0 C0.66 0 1.32 0 2 0 C2 0.99 2 1.98 2 3 C-0.9826906 4.52448631 -3.818202 5.93940067 -7 7 C-7 6.01 -7 5.02 -7 4 C-4.69 3.01 -2.38 2.02 0 1 C0 0.67 0 0.34 0 0 Z " fill="#10B981" transform="translate(111,165)"/>
<path d="M0 0 C1.65 0 3.3 0 5 0 C4.34 0.61875 3.68 1.2375 3 1.875 C0.7715451 3.75637427 0.7715451 3.75637427 1 6 C-0.65 5.67 -2.3 5.34 -4 5 C-3.34 4.67 -2.68 4.34 -2 4 C-0.86649466 1.98330173 -0.86649466 1.98330173 0 0 Z " fill="#10B981" transform="translate(108,87)"/>
<path d="M0 0 C5.28 0 10.56 0 16 0 C16 0.33 16 0.66 16 1 C14.77023438 1.09087891 14.77023438 1.09087891 13.515625 1.18359375 C11.89914063 1.30927734 11.89914063 1.30927734 10.25 1.4375 C9.18265625 1.51871094 8.1153125 1.59992187 7.015625 1.68359375 C4.56320038 1.94090773 2.36078709 2.31812218 0 3 C0 2.01 0 1.02 0 0 Z " fill="#10B981" transform="translate(96,24)"/>
<path d="M0 0 C3.3 0 6.6 0 10 0 C10 0.66 10 1.32 10 2 C6.6875 2.6875 6.6875 2.6875 3 3 C2.01 2.01 1.02 1.02 0 0 Z " fill="#10B981" transform="translate(184,204)"/>
<path d="M0 0 C1.9375 0.875 1.9375 0.875 4 2 C4.99 2.33 5.98 2.66 7 3 C7 3.66 7 4.32 7 5 C1.46153846 4.38461538 1.46153846 4.38461538 -0.875 2.4375 C-1.24625 1.963125 -1.6175 1.48875 -2 1 C-1.34 0.67 -0.68 0.34 0 0 Z " fill="#10B981" transform="translate(180,202)"/>
<path d="M0 0 C0.66 0.33 1.32 0.66 2 1 C2 4 2 4 0.625 5.6875 C-1 7 -1 7 -3 7 C-2.67 5.35 -2.34 3.7 -2 2 C-1.34 2 -0.68 2 0 2 C0 1.34 0 0.68 0 0 Z " fill="#10B981" transform="translate(91,106)"/>
<path d="M0 0 C1.98 0.66 3.96 1.32 6 2 C6.33 3.98 6.66 5.96 7 8 C4.35247996 5.42215154 2.05567935 3.08351902 0 0 Z " fill="#10B981" transform="translate(57,105)"/>
<path d="M0 0 C0.66 0 1.32 0 2 0 C1.71758359 1.46015291 1.42373386 2.91809793 1.125 4.375 C0.96257812 5.18710938 0.80015625 5.99921875 0.6328125 6.8359375 C0 9 0 9 -2 11 C-1.85957123 9.35369672 -1.71250671 7.70795821 -1.5625 6.0625 C-1.48128906 5.14597656 -1.40007812 4.22945312 -1.31640625 3.28515625 C-1 1 -1 1 0 0 Z " fill="#10B981" transform="translate(204,151)"/>
<path d="M0 0 C0.66 0 1.32 0 2 0 C2.66 2.97 3.32 5.94 4 9 C2.68 8.34 1.36 7.68 0 7 C0 4.69 0 2.38 0 0 Z " fill="#10B981" transform="translate(21,132)"/>
<path d="M0 0 C0.33 0.66 0.66 1.32 1 2 C1.66 2 2.32 2 3 2 C2.625 4.4375 2.625 4.4375 2 7 C1.01 7.495 1.01 7.495 0 8 C-1.125 2.25 -1.125 2.25 0 0 Z " fill="#10B981" transform="translate(49,56)"/>
<path d="M0 0 C2.31 0 4.62 0 7 0 C7.66 1.32 8.32 2.64 9 4 C7.68 4 6.36 4 5 4 C5 3.34 5 2.68 5 2 C3.35 1.67 1.7 1.34 0 1 C0 0.67 0 0.34 0 0 Z " fill="#10B981" transform="translate(164,195)"/>
<path d="M0 0 C-1.45264038 0.8638129 -2.9123163 1.71580454 -4.375 2.5625 C-5.59316406 3.27599609 -5.59316406 3.27599609 -6.8359375 4.00390625 C-7.55007812 4.33261719 -8.26421875 4.66132813 -9 5 C-9.66 4.67 -10.32 4.34 -11 4 C-4.45384615 -1.48461538 -4.45384615 -1.48461538 0 0 Z " fill="#10B981" transform="translate(114,169)"/>
<path d="M0 0 C2.97 0.495 2.97 0.495 6 1 C6.33 2.65 6.66 4.3 7 6 C5.83054208 5.19152271 4.66449539 4.37810888 3.5 3.5625 C2.8503125 3.11003906 2.200625 2.65757813 1.53125 2.19140625 C1.0259375 1.79824219 0.520625 1.40507813 0 1 C0 0.67 0 0.34 0 0 Z " fill="#10B981" transform="translate(170,103)"/>
<path d="M0 0 C1.875 0.1875 1.875 0.1875 4 1 C5.25 3.5625 5.25 3.5625 6 6 C4.35 5.67 2.7 5.34 1 5 C0.67 3.35 0.34 1.7 0 0 Z " fill="#10B981" transform="translate(66,87)"/>
<path d="M0 0 C0.99 0.66 1.98 1.32 3 2 C1.68 3.32 0.36 4.64 -1 6 C-1.99 5.67 -2.98 5.34 -4 5 C-2.68 3.35 -1.36 1.7 0 0 Z " fill="#10B981" transform="translate(15,83)"/>
<path d="M0 0 C0.33 1.32 0.66 2.64 1 4 C3.31 4.33 5.62 4.66 8 5 C8 5.33 8 5.66 8 6 C4.7 6 1.4 6 -2 6 C-1 2 -1 2 0 0 Z " fill="#10B981" transform="translate(142,63)"/>
<path d="M0 0 C2.64 0 5.28 0 8 0 C8.33 1.32 8.66 2.64 9 4 C6.03 3.01 3.06 2.02 0 1 C0 0.67 0 0.34 0 0 Z " fill="#10B981" transform="translate(169,199)"/>
<path d="M0 0 C0 0.99 0 1.98 0 3 C-2.31 3.33 -4.62 3.66 -7 4 C-6.67 3.01 -6.34 2.02 -6 1 C-4 0 -4 0 0 0 Z " fill="#10B981" transform="translate(112,177)"/>
<path d="M0 0 C3.63 0 7.26 0 11 0 C10.01 1.485 10.01 1.485 9 3 C4.545 2.01 4.545 2.01 0 1 C0 0.67 0 0.34 0 0 Z " fill="#10B981" transform="translate(68,164)"/>
<path d="M0 0 C1.24546405 2.49092811 0.7767578 3.41080733 0 6 C-1.98 6.33 -3.96 6.66 -6 7 C-4.02 4.69 -2.04 2.38 0 0 Z " fill="#10B981" transform="translate(114,142)"/>
<path d="M0 0 C0.75 1.6875 0.75 1.6875 1 4 C-0.9375 6.75 -0.9375 6.75 -3 9 C-3 7.02 -3 5.04 -3 3 C-2.34 3 -1.68 3 -1 3 C-0.67 2.01 -0.34 1.02 0 0 Z " fill="#10B981" transform="translate(140,135)"/>
<path d="M0 0 C0.33 0.66 0.66 1.32 1 2 C0.67 2.66 0.34 3.32 0 4 C-0.66 4 -1.32 4 -2 4 C-2.33 5.65 -2.66 7.3 -3 9 C-3.89674777 6.48910624 -4.13172674 5.35464891 -3.1875 2.8125 C-2 1 -2 1 0 0 Z " fill="#10B981" transform="translate(104,115)"/>
<path d="M0 0 C1.65 0 3.3 0 5 0 C5 0.99 5 1.98 5 3 C4.01 3 3.02 3 2 3 C1.67 3.66 1.34 4.32 1 5 C0.67 3.35 0.34 1.7 0 0 Z " fill="#10B981" transform="translate(114,99)"/>
<path d="M0 0 C1.485 0.99 1.485 0.99 3 2 C3.6875 5.625 3.6875 5.625 4 9 C3.34 9 2.68 9 2 9 C0.50178941 5.62902617 0 3.79557881 0 0 Z " fill="#10B981" transform="translate(51,88)"/>
<path d="M0 0 C1.670625 0.061875 1.670625 0.061875 3.375 0.125 C3.045 1.115 2.715 2.105 2.375 3.125 C-0.265 2.795 -2.905 2.465 -5.625 2.125 C-3.625 0.125 -3.625 0.125 0 0 Z " fill="#10B981" transform="translate(123.625,78.875)"/>
<path d="M0 0 C2.875 -0.1875 2.875 -0.1875 6 0 C6.66 0.99 7.32 1.98 8 3 C5.6568787 2.74438677 3.32156597 2.40729228 1 2 C0.67 1.34 0.34 0.68 0 0 Z " fill="#10B981" transform="translate(48,177)"/>
<path d="M0 0 C2.64 0 5.28 0 8 0 C7.01 0.33 6.02 0.66 5 1 C5 1.99 5 2.98 5 4 C4.01 4.33 3.02 4.66 2 5 C2 4.01 2 3.02 2 2 C1.34 1.34 0.68 0.68 0 0 Z " fill="#10B981" transform="translate(34,156)"/>
<path d="M0 0 C0.99 0 1.98 0 3 0 C3 2.64 3 5.28 3 8 C2.34 7.67 1.68 7.34 1 7 C0.59270772 4.67843403 0.25561323 2.3431213 0 0 Z " fill="#10B981" transform="translate(81,136)"/>
<path d="M0 0 C0.99 0.33 1.98 0.66 3 1 C3 2.98 3 4.96 3 7 C2.01 6.34 1.02 5.68 0 5 C-0.1875 2.375 -0.1875 2.375 0 0 Z " fill="#10B981" transform="translate(200,115)"/>
<path d="M0 0 C1.32 0 2.64 0 4 0 C4.66 1.98 5.32 3.96 6 6 C3.5625 5.25 3.5625 5.25 1 4 C0.1875 1.875 0.1875 1.875 0 0 Z " fill="#10B981" transform="translate(56,101)"/>
<path d="M0 0 C1.65 0 3.3 0 5 0 C4.67 1.98 4.34 3.96 4 6 C3.67 5.01 3.34 4.02 3 3 C2.01 2.67 1.02 2.34 0 2 C0 1.34 0 0.68 0 0 Z " fill="#10B981" transform="translate(63,48)"/>
<path d="M0 0 C-3.6441774 2.4294516 -5.71241272 2.16179575 -10 2 C-6.80505194 -1.19494806 -4.22040044 -1.35655728 0 0 Z " fill="#10B981" transform="translate(94,10)"/>
</svg>
